<svg width="190" height="43" viewBox="0 0 190 43" fill="none" xmlns="http://www.w3.org/2000/svg">
<path d="M2.88 28.44H8.384V29.68H4.24V33.088H8.104V34.32H4.24V39H2.88V28.44ZM11.4253 35.744C11.4253 36.432 11.5719 36.9813 11.8653 37.392C12.1639 37.7973 12.6199 38 13.2333 38C13.8519 38 14.3079 37.7973 14.6013 37.392C14.8946 36.9813 15.0413 36.432 15.0413 35.744V32.432H16.4173V35.936C16.4173 36.576 16.2919 37.1413 16.0413 37.632C15.7959 38.1227 15.4359 38.5067 14.9613 38.784C14.4919 39.056 13.9159 39.192 13.2333 39.192C12.5559 39.192 11.9799 39.056 11.5053 38.784C11.0359 38.5067 10.6759 38.1227 10.4253 37.632C10.1799 37.1413 10.0573 36.576 10.0573 35.936V32.432H11.4253V35.744ZM19.7568 39H18.3568V27.992H19.7568V39ZM23.2099 39H21.8099V27.992H23.2099V39ZM25.247 35.96V34.752H29.367V35.96H25.247ZM33.8196 32.24C34.161 32.24 34.4783 32.2747 34.7716 32.344C35.0703 32.4133 35.3263 32.496 35.5396 32.592C35.7583 32.688 35.913 32.7733 36.0036 32.848L35.4516 33.728C35.345 33.632 35.153 33.5253 34.8756 33.408C34.5983 33.2853 34.289 33.224 33.9476 33.224C33.5743 33.224 33.257 33.2987 32.9956 33.448C32.7343 33.592 32.6036 33.8027 32.6036 34.08C32.6036 34.3573 32.737 34.5787 33.0036 34.744C33.2756 34.904 33.6383 35.0373 34.0916 35.144C34.4543 35.2293 34.793 35.344 35.1076 35.488C35.4276 35.632 35.6863 35.832 35.8836 36.088C36.081 36.3387 36.1796 36.6747 36.1796 37.096C36.1796 37.48 36.0996 37.808 35.9396 38.08C35.7796 38.3467 35.5636 38.5627 35.2916 38.728C35.0196 38.888 34.7156 39.0053 34.3796 39.08C34.0436 39.1547 33.7023 39.192 33.3556 39.192C32.9503 39.192 32.585 39.1493 32.2596 39.064C31.9343 38.984 31.6596 38.888 31.4356 38.776C31.217 38.6587 31.057 38.5573 30.9556 38.472L31.5076 37.48C31.6463 37.6133 31.873 37.7547 32.1876 37.904C32.5076 38.0533 32.8703 38.128 33.2756 38.128C33.7236 38.128 34.0863 38.0347 34.3636 37.848C34.641 37.656 34.7796 37.408 34.7796 37.104C34.7796 36.8747 34.713 36.6907 34.5796 36.552C34.4463 36.4133 34.2676 36.3013 34.0436 36.216C33.8196 36.1307 33.5743 36.056 33.3076 35.992C33.0516 35.9333 32.801 35.856 32.5556 35.76C32.3156 35.664 32.0943 35.5413 31.8916 35.392C31.6943 35.2373 31.537 35.0507 31.4196 34.832C31.3023 34.608 31.2436 34.3467 31.2436 34.048C31.2436 33.6693 31.3636 33.3467 31.6036 33.08C31.8436 32.808 32.1583 32.6 32.5476 32.456C32.937 32.312 33.361 32.24 33.8196 32.24ZM37.1238 32.432H38.4118V29.736H39.7958V32.432H41.4838V33.624H39.7958V36.872C39.7958 37.256 39.8624 37.5387 39.9958 37.72C40.1344 37.9013 40.3184 37.992 40.5478 37.992C40.7504 37.992 40.9078 37.9547 41.0198 37.88C41.1318 37.8053 41.1984 37.7547 41.2198 37.728L41.7718 38.752C41.7398 38.7787 41.6544 38.8293 41.5158 38.904C41.3771 38.9787 41.1984 39.0453 40.9798 39.104C40.7611 39.1627 40.5051 39.192 40.2118 39.192C39.6998 39.192 39.2704 39.0373 38.9238 38.728C38.5824 38.4133 38.4118 37.9173 38.4118 37.24V33.624H37.1238V32.432ZM48.2606 39V37.72C48.218 37.8533 48.0926 38.0373 47.8846 38.272C47.682 38.5067 47.402 38.72 47.0446 38.912C46.6926 39.0987 46.2766 39.192 45.7966 39.192C45.1886 39.192 44.6366 39.048 44.1406 38.76C43.65 38.472 43.258 38.0693 42.9646 37.552C42.6766 37.0293 42.5326 36.4187 42.5326 35.72C42.5326 35.0213 42.6766 34.4133 42.9646 33.896C43.258 33.3733 43.65 32.968 44.1406 32.68C44.6366 32.3867 45.1886 32.24 45.7966 32.24C46.2713 32.24 46.682 32.3253 47.0286 32.496C47.3806 32.6667 47.6606 32.864 47.8686 33.088C48.082 33.312 48.2073 33.504 48.2446 33.664V32.432H49.6206V39H48.2606ZM43.9086 35.72C43.9086 36.1947 44.0126 36.6053 44.2206 36.952C44.4286 37.2987 44.698 37.568 45.0286 37.76C45.3646 37.9467 45.722 38.04 46.1006 38.04C46.506 38.04 46.8686 37.944 47.1886 37.752C47.5086 37.56 47.762 37.2907 47.9486 36.944C48.1353 36.592 48.2286 36.184 48.2286 35.72C48.2286 35.256 48.1353 34.8507 47.9486 34.504C47.762 34.152 47.5086 33.88 47.1886 33.688C46.8686 33.4907 46.506 33.392 46.1006 33.392C45.722 33.392 45.3646 33.488 45.0286 33.68C44.698 33.872 44.4286 34.1413 44.2206 34.488C44.0126 34.8347 43.9086 35.2453 43.9086 35.72ZM54.5766 38.04C54.9926 38.04 55.3286 37.9733 55.5846 37.84C55.8406 37.7067 56.0006 37.6107 56.0646 37.552L56.7446 38.552C56.6913 38.6 56.5633 38.6773 56.3606 38.784C56.1633 38.8853 55.9073 38.9787 55.5926 39.064C55.2833 39.1493 54.9313 39.192 54.5366 39.192C53.934 39.192 53.374 39.0587 52.8566 38.792C52.3393 38.52 51.9206 38.1253 51.6006 37.608C51.286 37.0907 51.1286 36.4587 51.1286 35.712C51.1286 34.96 51.286 34.328 51.6006 33.816C51.9206 33.2987 52.3393 32.9067 52.8566 32.64C53.374 32.3733 53.934 32.24 54.5366 32.24C54.926 32.24 55.2726 32.288 55.5766 32.384C55.8806 32.4747 56.1313 32.576 56.3286 32.688C56.526 32.8 56.6566 32.8853 56.7206 32.944L56.0326 33.944C55.99 33.9013 55.9073 33.8373 55.7846 33.752C55.6673 33.6613 55.5073 33.5787 55.3046 33.504C55.102 33.4293 54.8593 33.392 54.5766 33.392C54.2353 33.392 53.902 33.4853 53.5766 33.672C53.2566 33.8533 52.9926 34.1173 52.7846 34.464C52.5766 34.8107 52.4726 35.2267 52.4726 35.712C52.4726 36.1973 52.5766 36.616 52.7846 36.968C52.9926 37.3147 53.2566 37.5813 53.5766 37.768C53.902 37.9493 54.2353 38.04 54.5766 38.04ZM62.1373 32.432H63.8173L60.4253 35.56L64.0413 39H62.3373L59.2893 36.088V39H57.8973V27.992H59.2893V35.032L62.1373 32.432ZM69.0043 28.44H71.4923C72.6176 28.44 73.5429 28.6667 74.2683 29.12C74.9989 29.568 75.5403 30.1893 75.8923 30.984C76.2443 31.7787 76.4202 32.688 76.4202 33.712C76.4202 34.7413 76.2443 35.6533 75.8923 36.448C75.5403 37.2427 75.0016 37.8667 74.2763 38.32C73.5509 38.7733 72.6229 39 71.4923 39H69.0043V28.44ZM70.3643 29.688V37.752H71.3803C72.2123 37.752 72.8923 37.5787 73.4203 37.232C73.9483 36.8853 74.3376 36.4107 74.5883 35.808C74.8443 35.2 74.9749 34.5067 74.9803 33.728C74.9803 32.944 74.8549 32.2507 74.6043 31.648C74.3536 31.04 73.9616 30.5627 73.4283 30.216C72.8949 29.864 72.2123 29.688 71.3803 29.688H70.3643ZM78.9933 36C78.9986 36.3947 79.0839 36.7547 79.2493 37.08C79.4146 37.4053 79.6599 37.664 79.9853 37.856C80.3159 38.048 80.7213 38.144 81.2013 38.144C81.6066 38.144 81.9506 38.0853 82.2333 37.968C82.5213 37.8453 82.7559 37.7013 82.9373 37.536C83.1186 37.3653 83.2493 37.2133 83.3293 37.08L84.0093 37.92C83.8333 38.176 83.6173 38.4 83.3613 38.592C83.1106 38.784 82.8039 38.9307 82.4413 39.032C82.0786 39.1387 81.6359 39.192 81.1133 39.192C80.4093 39.192 79.7986 39.0427 79.2812 38.744C78.7693 38.44 78.3746 38.0213 78.0973 37.488C77.8199 36.9493 77.6813 36.3333 77.6813 35.64C77.6813 35 77.8119 34.424 78.0733 33.912C78.3346 33.3947 78.7133 32.9867 79.2093 32.688C79.7106 32.3893 80.3133 32.24 81.0173 32.24C81.6626 32.24 82.2226 32.376 82.6973 32.648C83.1773 32.9147 83.5479 33.2933 83.8093 33.784C84.0759 34.2747 84.2093 34.8613 84.2093 35.544C84.2093 35.5867 84.2066 35.664 84.2013 35.776C84.1959 35.8827 84.1906 35.9573 84.1853 36H78.9933ZM82.8813 34.952C82.8759 34.7333 82.8119 34.4933 82.6893 34.232C82.5719 33.9707 82.3799 33.7467 82.1133 33.56C81.8466 33.3733 81.4866 33.28 81.0333 33.28C80.5639 33.28 80.1853 33.3707 79.8973 33.552C79.6146 33.7333 79.4066 33.9547 79.2733 34.216C79.1399 34.472 79.0626 34.7173 79.0413 34.952H82.8813ZM85.0903 32.432H86.5863L88.7303 37.712L90.8743 32.432H92.3623L89.5543 39H87.9143L85.0903 32.432ZM94.5401 36C94.5455 36.3947 94.6308 36.7547 94.7961 37.08C94.9615 37.4053 95.2068 37.664 95.5321 37.856C95.8628 38.048 96.2681 38.144 96.7481 38.144C97.1535 38.144 97.4975 38.0853 97.7801 37.968C98.0681 37.8453 98.3028 37.7013 98.4841 37.536C98.6655 37.3653 98.7961 37.2133 98.8761 37.08L99.5561 37.92C99.3801 38.176 99.1641 38.4 98.9081 38.592C98.6575 38.784 98.3508 38.9307 97.9881 39.032C97.6255 39.1387 97.1828 39.192 96.6601 39.192C95.9561 39.192 95.3455 39.0427 94.8281 38.744C94.3161 38.44 93.9215 38.0213 93.6441 37.488C93.3668 36.9493 93.2281 36.3333 93.2281 35.64C93.2281 35 93.3588 34.424 93.6201 33.912C93.8815 33.3947 94.2601 32.9867 94.7561 32.688C95.2575 32.3893 95.8601 32.24 96.5641 32.24C97.2095 32.24 97.7695 32.376 98.2441 32.648C98.7241 32.9147 99.0948 33.2933 99.3561 33.784C99.6228 34.2747 99.7561 34.8613 99.7561 35.544C99.7561 35.5867 99.7535 35.664 99.7481 35.776C99.7428 35.8827 99.7375 35.9573 99.7321 36H94.5401ZM98.4281 34.952C98.4228 34.7333 98.3588 34.4933 98.2361 34.232C98.1188 33.9707 97.9268 33.7467 97.6601 33.56C97.3935 33.3733 97.0335 33.28 96.5801 33.28C96.1108 33.28 95.7321 33.3707 95.4441 33.552C95.1615 33.7333 94.9535 33.9547 94.8201 34.216C94.6868 34.472 94.6095 34.7173 94.5881 34.952H98.4281ZM102.741 39H101.341V27.992H102.741V39ZM107.786 39.192C107.109 39.192 106.506 39.04 105.978 38.736C105.456 38.432 105.045 38.0213 104.746 37.504C104.448 36.9813 104.298 36.392 104.298 35.736C104.298 35.08 104.448 34.488 104.746 33.96C105.045 33.432 105.456 33.0133 105.978 32.704C106.506 32.3947 107.109 32.24 107.786 32.24C108.458 32.24 109.053 32.3947 109.57 32.704C110.093 33.0133 110.501 33.432 110.794 33.96C111.088 34.488 111.234 35.08 111.234 35.736C111.234 36.392 111.088 36.9813 110.794 37.504C110.501 38.0213 110.093 38.432 109.57 38.736C109.053 39.04 108.458 39.192 107.786 39.192ZM107.786 38C108.213 38 108.584 37.9013 108.898 37.704C109.218 37.5067 109.466 37.2373 109.642 36.896C109.818 36.5493 109.906 36.16 109.906 35.728C109.906 35.296 109.818 34.9067 109.642 34.56C109.466 34.2133 109.218 33.9387 108.898 33.736C108.584 33.5333 108.213 33.432 107.786 33.432C107.354 33.432 106.978 33.5333 106.658 33.736C106.338 33.9387 106.088 34.2133 105.906 34.56C105.73 34.9067 105.642 35.296 105.642 35.728C105.642 36.16 105.73 36.5493 105.906 36.896C106.088 37.2373 106.338 37.5067 106.658 37.704C106.978 37.9013 107.354 38 107.786 38ZM114.186 42.328H112.802V32.432H114.21V33.664C114.258 33.4987 114.391 33.304 114.61 33.08C114.828 32.856 115.122 32.6613 115.49 32.496C115.863 32.3253 116.29 32.24 116.77 32.24C117.378 32.24 117.916 32.3867 118.386 32.68C118.86 32.968 119.231 33.3733 119.498 33.896C119.77 34.4133 119.906 35.0213 119.906 35.72C119.906 36.4187 119.767 37.0293 119.49 37.552C119.212 38.0693 118.834 38.472 118.354 38.76C117.879 39.048 117.335 39.192 116.722 39.192C116.226 39.192 115.791 39.0987 115.418 38.912C115.05 38.7253 114.759 38.5147 114.546 38.28C114.338 38.0453 114.218 37.8587 114.186 37.72V42.328ZM118.53 35.72C118.53 35.2453 118.431 34.8347 118.234 34.488C118.042 34.1413 117.786 33.872 117.466 33.68C117.146 33.488 116.799 33.392 116.426 33.392C116.015 33.392 115.642 33.4907 115.306 33.688C114.97 33.88 114.703 34.152 114.506 34.504C114.308 34.8507 114.21 35.256 114.21 35.72C114.21 36.184 114.308 36.592 114.506 36.944C114.703 37.2907 114.97 37.56 115.306 37.752C115.642 37.944 116.015 38.04 116.426 38.04C116.799 38.04 117.146 37.9467 117.466 37.76C117.786 37.568 118.042 37.2987 118.234 36.952C118.431 36.6053 118.53 36.1947 118.53 35.72ZM122.228 36C122.233 36.3947 122.318 36.7547 122.484 37.08C122.649 37.4053 122.894 37.664 123.22 37.856C123.55 38.048 123.956 38.144 124.436 38.144C124.841 38.144 125.185 38.0853 125.468 37.968C125.756 37.8453 125.99 37.7013 126.172 37.536C126.353 37.3653 126.484 37.2133 126.564 37.08L127.244 37.92C127.068 38.176 126.852 38.4 126.596 38.592C126.345 38.784 126.038 38.9307 125.676 39.032C125.313 39.1387 124.87 39.192 124.348 39.192C123.644 39.192 123.033 39.0427 122.516 38.744C122.004 38.44 121.609 38.0213 121.332 37.488C121.054 36.9493 120.916 36.3333 120.916 35.64C120.916 35 121.046 34.424 121.308 33.912C121.569 33.3947 121.948 32.9867 122.444 32.688C122.945 32.3893 123.548 32.24 124.252 32.24C124.897 32.24 125.457 32.376 125.932 32.648C126.412 32.9147 126.782 33.2933 127.044 33.784C127.31 34.2747 127.444 34.8613 127.444 35.544C127.444 35.5867 127.441 35.664 127.436 35.776C127.43 35.8827 127.425 35.9573 127.42 36H122.228ZM126.116 34.952C126.11 34.7333 126.046 34.4933 125.924 34.232C125.806 33.9707 125.614 33.7467 125.348 33.56C125.081 33.3733 124.721 33.28 124.268 33.28C123.798 33.28 123.42 33.3707 123.132 33.552C122.849 33.7333 122.641 33.9547 122.508 34.216C122.374 34.472 122.297 34.7173 122.276 34.952H126.116ZM130.349 39H128.965V32.432H130.349V33.568H130.309C130.335 33.4293 130.434 33.256 130.605 33.048C130.775 32.84 131.01 32.6533 131.309 32.488C131.607 32.3227 131.965 32.24 132.381 32.24C132.685 32.24 132.951 32.2827 133.181 32.368C133.415 32.448 133.581 32.528 133.677 32.608L133.109 33.76C133.034 33.6853 132.903 33.6107 132.717 33.536C132.53 33.456 132.298 33.416 132.021 33.416C131.669 33.416 131.367 33.5253 131.117 33.744C130.866 33.9627 130.674 34.2267 130.541 34.536C130.413 34.84 130.349 35.1227 130.349 35.384V39Z" fill="url(#paint0_linear_7_53)"/>
<path d="M12.16 20.056C13.376 20.056 14.4373 19.8907 15.344 19.56C16.2613 19.2187 16.928 18.8827 17.344 18.552L18.784 21.432C18.304 21.8587 17.4667 22.2907 16.272 22.728C15.0773 23.1653 13.648 23.384 11.984 23.384C10.4267 23.384 8.976 23.1067 7.632 22.552C6.288 21.9973 5.10933 21.2293 4.096 20.248C3.08267 19.256 2.29333 18.0987 1.728 16.776C1.16267 15.4533 0.88 14.0187 0.88 12.472C0.88 10.9253 1.16267 9.48533 1.728 8.152C2.29333 6.81867 3.07733 5.656 4.08 4.664C5.09333 3.672 6.272 2.89867 7.616 2.344C8.97067 1.77867 10.4267 1.496 11.984 1.496C13.648 1.496 15.0773 1.71467 16.272 2.152C17.4667 2.58933 18.304 3.02133 18.784 3.448L17.344 6.328C16.928 5.99733 16.2613 5.66667 15.344 5.336C14.4373 4.99467 13.376 4.824 12.16 4.824C11.008 4.824 9.96267 5.016 9.024 5.4C8.08533 5.784 7.28 6.32267 6.608 7.016C5.936 7.70933 5.41867 8.52 5.056 9.448C4.69333 10.3653 4.512 11.3573 4.512 12.424C4.512 13.5013 4.69333 14.504 5.056 15.432C5.41867 16.36 5.936 17.1707 6.608 17.864C7.28 18.5573 8.08533 19.096 9.024 19.48C9.96267 19.864 11.008 20.056 12.16 20.056ZM32.3598 23V20.568C32.2744 20.824 32.0291 21.176 31.6238 21.624C31.2291 22.072 30.6851 22.4773 29.9918 22.84C29.3091 23.2027 28.4984 23.384 27.5598 23.384C26.3331 23.384 25.2291 23.0907 24.2478 22.504C23.2664 21.9173 22.4931 21.1013 21.9278 20.056C21.3624 19.0107 21.0798 17.8053 21.0798 16.44C21.0798 15.0747 21.3624 13.8693 21.9278 12.824C22.4931 11.7787 23.2664 10.9627 24.2478 10.376C25.2291 9.77867 26.3331 9.48 27.5598 9.48C28.4771 9.48 29.2718 9.64 29.9438 9.96C30.6158 10.28 31.1544 10.648 31.5598 11.064C31.9758 11.48 32.2318 11.8427 32.3278 12.152V9.864H35.7198V23H32.3598ZM24.4557 16.44C24.4557 17.2827 24.6424 18.0187 25.0158 18.648C25.3891 19.2773 25.8744 19.7627 26.4718 20.104C27.0798 20.4453 27.7304 20.616 28.4237 20.616C29.1704 20.616 29.8318 20.44 30.4078 20.088C30.9944 19.736 31.4531 19.2507 31.7838 18.632C32.1251 18.0027 32.2958 17.272 32.2958 16.44C32.2958 15.608 32.1251 14.8827 31.7838 14.264C31.4531 13.6347 30.9944 13.144 30.4078 12.792C29.8318 12.4293 29.1704 12.248 28.4237 12.248C27.7304 12.248 27.0798 12.424 26.4718 12.776C25.8744 13.1173 25.3891 13.6027 25.0158 14.232C24.6424 14.8613 24.4557 15.5973 24.4557 16.44ZM39.4963 23V9.864H42.9043V23H39.4963ZM41.2403 5.928C40.6643 5.928 40.1683 5.72 39.7523 5.304C39.3469 4.888 39.1443 4.392 39.1443 3.816C39.1443 3.24 39.3469 2.744 39.7523 2.328C40.1683 1.90133 40.6643 1.688 41.2403 1.688C41.6243 1.688 41.9763 1.78933 42.2963 1.992C42.6269 2.184 42.8883 2.44 43.0803 2.76C43.2829 3.06933 43.3843 3.42133 43.3843 3.816C43.3843 4.392 43.1763 4.888 42.7603 5.304C42.3443 5.72 41.8376 5.928 41.2403 5.928ZM53.1525 23.384C51.7765 23.384 50.5498 23.0853 49.4725 22.488C48.4058 21.88 47.5685 21.0587 46.9605 20.024C46.3525 18.9787 46.0485 17.7947 46.0485 16.472C46.0485 15.1493 46.3525 13.96 46.9605 12.904C47.5685 11.848 48.4058 11.016 49.4725 10.408C50.5498 9.78933 51.7765 9.48 53.1525 9.48C54.5285 9.48 55.7445 9.78933 56.8005 10.408C57.8565 11.016 58.6832 11.848 59.2805 12.904C59.8885 13.96 60.1925 15.1493 60.1925 16.472C60.1925 17.7947 59.8885 18.9787 59.2805 20.024C58.6832 21.0587 57.8565 21.88 56.8005 22.488C55.7445 23.0853 54.5285 23.384 53.1525 23.384ZM53.1525 20.504C53.9205 20.504 54.5872 20.328 55.1525 19.976C55.7178 19.624 56.1552 19.144 56.4645 18.536C56.7738 17.928 56.9285 17.2347 56.9285 16.456C56.9285 15.6773 56.7738 14.984 56.4645 14.376C56.1552 13.7573 55.7178 13.2667 55.1525 12.904C54.5872 12.5413 53.9205 12.36 53.1525 12.36C52.3845 12.36 51.7125 12.5413 51.1365 12.904C50.5712 13.2667 50.1285 13.7573 49.8085 14.376C49.4992 14.984 49.3445 15.6773 49.3445 16.456C49.3445 17.2347 49.4992 17.928 49.8085 18.536C50.1285 19.144 50.5712 19.624 51.1365 19.976C51.7125 20.328 52.3845 20.504 53.1525 20.504ZM78.185 1.496C79.4223 1.496 80.4943 1.64 81.401 1.928C82.3183 2.20533 83.0437 2.504 83.577 2.824C84.1103 3.13333 84.4303 3.336 84.537 3.432L82.857 6.168C82.697 6.02933 82.409 5.83733 81.993 5.592C81.5877 5.336 81.0863 5.10667 80.489 4.904C79.9023 4.70133 79.2463 4.6 78.521 4.6C77.433 4.6 76.569 4.81333 75.929 5.24C75.289 5.656 74.969 6.264 74.969 7.064C74.969 7.59733 75.1397 8.06667 75.481 8.472C75.8223 8.87733 76.3077 9.256 76.937 9.608C77.577 9.96 78.3397 10.3173 79.225 10.68C79.9717 10.9893 80.697 11.3413 81.401 11.736C82.1157 12.1307 82.7557 12.5947 83.321 13.128C83.8863 13.6613 84.3343 14.28 84.665 14.984C85.0063 15.688 85.177 16.4987 85.177 17.416C85.177 18.376 84.9797 19.2293 84.585 19.976C84.1903 20.712 83.6463 21.336 82.953 21.848C82.2597 22.3493 81.4597 22.7333 80.553 23C79.657 23.256 78.697 23.384 77.673 23.384C76.329 23.384 75.1183 23.224 74.041 22.904C72.9743 22.5733 72.1103 22.232 71.449 21.88C70.7877 21.5173 70.4037 21.2827 70.297 21.176L72.073 18.312C72.201 18.4187 72.4357 18.5787 72.777 18.792C73.129 18.9947 73.561 19.2133 74.073 19.448C74.585 19.672 75.1503 19.864 75.769 20.024C76.3983 20.1733 77.049 20.248 77.721 20.248C79.0117 20.248 79.9877 19.9707 80.649 19.416C81.3103 18.8507 81.641 18.1253 81.641 17.24C81.641 16.568 81.4277 15.9867 81.001 15.496C80.585 14.9947 80.009 14.5413 79.273 14.136C78.5477 13.7307 77.721 13.3307 76.793 12.936C75.8437 12.52 74.9637 12.0507 74.153 11.528C73.353 11.0053 72.7077 10.3707 72.217 9.624C71.7263 8.86667 71.481 7.94933 71.481 6.872C71.481 5.79467 71.785 4.856 72.393 4.056C73.0117 3.24533 73.8277 2.616 74.841 2.168C75.8543 1.72 76.969 1.496 78.185 1.496ZM98.8598 23V20.568C98.7744 20.824 98.5291 21.176 98.1238 21.624C97.7291 22.072 97.1851 22.4773 96.4918 22.84C95.8091 23.2027 94.9984 23.384 94.0598 23.384C92.8331 23.384 91.7291 23.0907 90.7478 22.504C89.7664 21.9173 88.9931 21.1013 88.4278 20.056C87.8624 19.0107 87.5798 17.8053 87.5798 16.44C87.5798 15.0747 87.8624 13.8693 88.4278 12.824C88.9931 11.7787 89.7664 10.9627 90.7478 10.376C91.7291 9.77867 92.8331 9.48 94.0598 9.48C94.9771 9.48 95.7718 9.64 96.4438 9.96C97.1158 10.28 97.6544 10.648 98.0598 11.064C98.4758 11.48 98.7318 11.8427 98.8278 12.152V9.864H102.22V23H98.8598ZM90.9557 16.44C90.9557 17.2827 91.1424 18.0187 91.5158 18.648C91.8891 19.2773 92.3744 19.7627 92.9718 20.104C93.5798 20.4453 94.2304 20.616 94.9237 20.616C95.6704 20.616 96.3318 20.44 96.9078 20.088C97.4944 19.736 97.9531 19.2507 98.2838 18.632C98.6251 18.0027 98.7958 17.272 98.7958 16.44C98.7958 15.608 98.6251 14.8827 98.2838 14.264C97.9531 13.6347 97.4944 13.144 96.9078 12.792C96.3318 12.4293 95.6704 12.248 94.9237 12.248C94.2304 12.248 93.5798 12.424 92.9718 12.776C92.3744 13.1173 91.8891 13.6027 91.5158 14.232C91.1424 14.8613 90.9557 15.5973 90.9557 16.44ZM109.228 23H105.788V0.983999H109.228V23ZM111.679 9.864H115.343L119.295 19.864L123.247 9.864H126.895L121.311 23H117.295L111.679 9.864ZM139.766 23V20.568C139.681 20.824 139.435 21.176 139.03 21.624C138.635 22.072 138.091 22.4773 137.398 22.84C136.715 23.2027 135.905 23.384 134.966 23.384C133.739 23.384 132.635 23.0907 131.654 22.504C130.673 21.9173 129.899 21.1013 129.334 20.056C128.769 19.0107 128.486 17.8053 128.486 16.44C128.486 15.0747 128.769 13.8693 129.334 12.824C129.899 11.7787 130.673 10.9627 131.654 10.376C132.635 9.77867 133.739 9.48 134.966 9.48C135.883 9.48 136.678 9.64 137.35 9.96C138.022 10.28 138.561 10.648 138.966 11.064C139.382 11.48 139.638 11.8427 139.734 12.152V9.864H143.126V23H139.766ZM131.862 16.44C131.862 17.2827 132.049 18.0187 132.422 18.648C132.795 19.2773 133.281 19.7627 133.878 20.104C134.486 20.4453 135.137 20.616 135.83 20.616C136.577 20.616 137.238 20.44 137.814 20.088C138.401 19.736 138.859 19.2507 139.19 18.632C139.531 18.0027 139.702 17.272 139.702 16.44C139.702 15.608 139.531 14.8827 139.19 14.264C138.859 13.6347 138.401 13.144 137.814 12.792C137.238 12.4293 136.577 12.248 135.83 12.248C135.137 12.248 134.486 12.424 133.878 12.776C133.281 13.1173 132.795 13.6027 132.422 14.232C132.049 14.8613 131.862 15.5973 131.862 16.44ZM152.391 23.384C151.153 23.384 150.06 23.0907 149.111 22.504C148.161 21.9173 147.415 21.1013 146.871 20.056C146.337 19.0107 146.071 17.8053 146.071 16.44C146.071 15.0747 146.337 13.8693 146.871 12.824C147.415 11.7787 148.161 10.9627 149.111 10.376C150.06 9.77867 151.153 9.48 152.391 9.48C153.308 9.48 154.124 9.64 154.839 9.96C155.553 10.2693 156.124 10.632 156.551 11.048C156.977 11.464 157.228 11.832 157.303 12.152V0.983999H160.727V23H157.351V20.568C157.201 20.9413 156.897 21.3467 156.439 21.784C155.98 22.2213 155.399 22.6 154.695 22.92C154.001 23.2293 153.233 23.384 152.391 23.384ZM153.271 20.616C154.017 20.616 154.695 20.44 155.303 20.088C155.911 19.736 156.396 19.2507 156.759 18.632C157.121 18.0027 157.303 17.272 157.303 16.44C157.303 15.608 157.121 14.8827 156.759 14.264C156.396 13.6347 155.911 13.144 155.303 12.792C154.695 12.4293 154.017 12.248 153.271 12.248C152.588 12.248 151.953 12.424 151.367 12.776C150.791 13.1173 150.327 13.6027 149.975 14.232C149.623 14.8613 149.447 15.5973 149.447 16.44C149.447 17.2827 149.623 18.0187 149.975 18.648C150.327 19.2773 150.791 19.7627 151.367 20.104C151.953 20.4453 152.588 20.616 153.271 20.616ZM169.996 23.384C168.62 23.384 167.394 23.0853 166.316 22.488C165.25 21.88 164.412 21.0587 163.804 20.024C163.196 18.9787 162.892 17.7947 162.892 16.472C162.892 15.1493 163.196 13.96 163.804 12.904C164.412 11.848 165.25 11.016 166.316 10.408C167.394 9.78933 168.62 9.48 169.996 9.48C171.372 9.48 172.588 9.78933 173.644 10.408C174.7 11.016 175.527 11.848 176.124 12.904C176.732 13.96 177.036 15.1493 177.036 16.472C177.036 17.7947 176.732 18.9787 176.124 20.024C175.527 21.0587 174.7 21.88 173.644 22.488C172.588 23.0853 171.372 23.384 169.996 23.384ZM169.996 20.504C170.764 20.504 171.431 20.328 171.996 19.976C172.562 19.624 172.999 19.144 173.308 18.536C173.618 17.928 173.772 17.2347 173.772 16.456C173.772 15.6773 173.618 14.984 173.308 14.376C172.999 13.7573 172.562 13.2667 171.996 12.904C171.431 12.5413 170.764 12.36 169.996 12.36C169.228 12.36 168.556 12.5413 167.98 12.904C167.415 13.2667 166.972 13.7573 166.652 14.376C166.343 14.984 166.188 15.6773 166.188 16.456C166.188 17.2347 166.343 17.928 166.652 18.536C166.972 19.144 167.415 19.624 167.98 19.976C168.556 20.328 169.228 20.504 169.996 20.504ZM183.176 23H179.768V9.864H183.176V12.056H183.096C183.17 11.7893 183.373 11.4587 183.704 11.064C184.045 10.6587 184.514 10.296 185.112 9.976C185.709 9.64533 186.429 9.48 187.272 9.48C187.88 9.48 188.424 9.56533 188.904 9.736C189.384 9.90667 189.725 10.0773 189.928 10.248L188.552 13.064C188.413 12.8933 188.152 12.728 187.768 12.568C187.394 12.3973 186.93 12.312 186.376 12.312C185.682 12.312 185.096 12.5147 184.616 12.92C184.146 13.3253 183.789 13.8107 183.544 14.376C183.298 14.9413 183.176 15.4693 183.176 15.96V23Z" fill="white"/>
<defs>
<linearGradient id="paint0_linear_7_53" x1="2" y1="39.4706" x2="134" y2="39.4706" gradientUnits="userSpaceOnUse">
<stop stop-color="#54A7E4"/>
<stop offset="1" stop-color="#8067C7"/>
</linearGradient>
</defs>
</svg>
